<svg width="178" height="151" viewBox="0 0 178 151" fill="none" xmlns="http://www.w3.org/2000/svg">
<circle cx="6.84615" cy="6.84615" r="6.84615" fill="#2DA5FC" fill-opacity="0.5"/>
<circle cx="34.2304" cy="6.84615" r="6.84615" fill="#2DA5FC" fill-opacity="0.5"/>
<circle cx="61.6157" cy="6.84615" r="6.84615" fill="#2DA5FC" fill-opacity="0.5"/>
<circle cx="88.9995" cy="6.84615" r="6.84615" fill="#2DA5FC" fill-opacity="0.5"/>
<circle cx="116.385" cy="6.84615" r="6.84615" fill="#2DA5FC" fill-opacity="0.5"/>
<circle cx="143.769" cy="6.84615" r="6.84615" fill="#2DA5FC" fill-opacity="0.5"/>
<circle cx="171.154" cy="6.84615" r="6.84615" fill="#2DA5FC" fill-opacity="0.5"/>
<circle cx="6.84615" cy="34.2309" r="6.84615" fill="#2DA5FC" fill-opacity="0.5"/>
<circle cx="34.2304" cy="34.2309" r="6.84615" fill="#2DA5FC" fill-opacity="0.5"/>
<circle cx="61.6157" cy="34.2309" r="6.84615" fill="#2DA5FC" fill-opacity="0.5"/>
<circle cx="88.9995" cy="34.2309" r="6.84615" fill="#2DA5FC" fill-opacity="0.5"/>
<circle cx="116.385" cy="34.2309" r="6.84615" fill="#2DA5FC" fill-opacity="0.5"/>
<circle cx="143.769" cy="34.2309" r="6.84615" fill="#2DA5FC" fill-opacity="0.5"/>
<circle cx="171.154" cy="34.2309" r="6.84615" fill="#2DA5FC" fill-opacity="0.5"/>
<circle cx="6.84615" cy="61.6152" r="6.84615" fill="#2DA5FC" fill-opacity="0.5"/>
<circle cx="34.2304" cy="61.6152" r="6.84615" fill="#2DA5FC" fill-opacity="0.5"/>
<circle cx="61.6157" cy="61.6152" r="6.84615" fill="#2DA5FC" fill-opacity="0.5"/>
<circle cx="88.9995" cy="61.6152" r="6.84615" fill="#2DA5FC" fill-opacity="0.5"/>
<circle cx="116.385" cy="61.6152" r="6.84615" fill="#2DA5FC" fill-opacity="0.5"/>
<circle cx="143.769" cy="61.6152" r="6.84615" fill="#2DA5FC" fill-opacity="0.5"/>
<circle cx="171.154" cy="61.6152" r="6.84615" fill="#2DA5FC" fill-opacity="0.5"/>
<circle cx="6.84615" cy="89" r="6.84615" fill="#2DA5FC" fill-opacity="0.5"/>
<circle cx="34.2304" cy="89" r="6.84615" fill="#2DA5FC" fill-opacity="0.5"/>
<circle cx="61.6157" cy="89" r="6.84615" fill="#2DA5FC" fill-opacity="0.5"/>
<circle cx="88.9995" cy="89" r="6.84615" fill="#2DA5FC" fill-opacity="0.5"/>
<circle cx="116.385" cy="89" r="6.84615" fill="#2DA5FC" fill-opacity="0.5"/>
<circle cx="143.769" cy="89" r="6.84615" fill="#2DA5FC" fill-opacity="0.5"/>
<circle cx="171.154" cy="89" r="6.84615" fill="#2DA5FC" fill-opacity="0.5"/>
<circle cx="6.84615" cy="116.385" r="6.84615" fill="#2DA5FC" fill-opacity="0.5"/>
<circle cx="34.2304" cy="116.385" r="6.84615" fill="#2DA5FC" fill-opacity="0.5"/>
<circle cx="61.6157" cy="116.385" r="6.84615" fill="#2DA5FC" fill-opacity="0.5"/>
<circle cx="88.9995" cy="116.385" r="6.84615" fill="#2DA5FC" fill-opacity="0.5"/>
<circle cx="116.385" cy="116.385" r="6.84615" fill="#2DA5FC" fill-opacity="0.5"/>
<circle cx="143.769" cy="116.385" r="6.84615" fill="#2DA5FC" fill-opacity="0.5"/>
<circle cx="171.154" cy="116.385" r="6.84615" fill="#2DA5FC" fill-opacity="0.5"/>
<circle cx="6.84615" cy="143.769" r="6.84615" fill="#2DA5FC" fill-opacity="0.5"/>
<circle cx="34.2304" cy="143.769" r="6.84615" fill="#2DA5FC" fill-opacity="0.5"/>
<circle cx="61.6157" cy="143.769" r="6.84615" fill="#2DA5FC" fill-opacity="0.5"/>
<circle cx="88.9995" cy="143.769" r="6.84615" fill="#2DA5FC" fill-opacity="0.5"/>
<circle cx="116.385" cy="143.769" r="6.84615" fill="#2DA5FC" fill-opacity="0.5"/>
<circle cx="143.769" cy="143.769" r="6.84615" fill="#2DA5FC" fill-opacity="0.5"/>
<circle cx="171.154" cy="143.769" r="6.84615" fill="#2DA5FC" fill-opacity="0.5"/>
</svg>
